<?xml version="1.0" encoding="UTF-8" standalone="no"?>
<!DOCTYPE svg PUBLIC "-//W3C//DTD SVG 1.1//EN" "http://www.w3.org/Graphics/SVG/1.1/DTD/svg11.dtd">
<svg width="100%" height="100%" viewBox="0 0 534 534" version="1.1" xmlns="http://www.w3.org/2000/svg" xmlns:xlink="http://www.w3.org/1999/xlink" xml:space="preserve" xmlns:serif="http://www.serif.com/" style="fill-rule:evenodd;clip-rule:evenodd;stroke-linejoin:round;stroke-miterlimit:2;">
    <g transform="matrix(4.16667,0,0,4.16667,0,0)">
        <g transform="matrix(8,0,0,8,0,0)">
            <path d="M3,1C1.903,1 1,1.903 1,3L1,13C1,14.097 1.903,15 3,15L13,15C14.097,15 15,14.097 15,13L15,3C15,1.903 14.097,1 13,1L3,1ZM3,3L5,3L5,5L3,5L3,3ZM7,3L9,3L9,5L7,5L7,3ZM11,3L13,3L13,5L11,5L11,3ZM3,7L5,7L5,9L3,9L3,7ZM7,7L9,7L9,9L7,9L7,7ZM11,7L13,7L13,9L11,9L11,7ZM3,11L5,11L5,13L3,13L3,11ZM7,11L9,11L9,13L7,13L7,11ZM11,11L13,11L13,13L11,13L11,11Z" style="fill:rgb(141,165,243);fill-rule:nonzero;"/>
        </g>
    </g>
</svg>
